<svg width="30" height="32" viewBox="0 0 30 32" fill="none" xmlns="http://www.w3.org/2000/svg">
<path d="M24.7526 20.1525C24.3943 20.0127 24.113 20.0981 23.9087 20.4087" stroke="white" stroke-width="0.330649"/>
<path d="M25.1327 21.0801C25.0717 21.1606 25.0467 21.2462 25.0577 21.337" stroke="white" stroke-width="0.330649"/>
<path d="M16.8623 26.5672C16.7469 26.2798 16.4809 26.236 16.173 26.2128C16.0832 26.2057 15.9696 26.1314 15.832 25.9897" stroke="white" stroke-width="0.330649"/>
<path d="M17.0533 22.0791C16.7866 22.1335 16.5991 22.284 16.4908 22.5305C16.3302 22.8951 16.4032 23.1775 16.7097 23.3775C16.9372 23.5268 17.062 23.7758 16.9989 24.0393C16.9226 24.3579 16.8789 24.634 16.6115 24.7701C16.5761 24.7878 16.4698 24.8106 16.2924 24.8385C16.1376 24.8628 15.9965 24.9261 15.8691 25.0283" stroke="white" stroke-width="0.330649"/>
<path d="M10.0598 3.26052C9.09827 2.68125 8.07174 2.11814 6.9802 1.57117C6.75729 1.45965 6.7679 1.1802 6.97157 1.0554C7.79288 0.552693 8.64449 0.321915 9.52639 0.36307C9.80149 0.375903 10.1664 0.444715 10.621 0.569508C16.069 2.06437 21.4825 3.54529 26.8615 5.01227C28.5512 5.47361 29.6618 6.85961 29.9424 8.57684C30.0202 9.05255 30.0193 9.5858 29.9397 10.1766C29.8906 10.5417 29.7593 10.9433 29.6531 11.3103C28.8022 14.2421 27.9393 17.2205 27.0645 20.2456C27.0207 20.397 26.9718 20.4908 26.9179 20.5271C26.7679 20.6287 26.5848 20.5789 26.5006 20.4202C25.6165 18.7594 24.6067 17.1535 23.4714 15.6024C19.8611 10.6711 15.2968 6.41752 10.0598 3.26052Z" fill="white"/>
<path d="M8.29726 3.7251L5.50259 1.23374C5.45882 1.19472 5.39173 1.19859 5.35273 1.24238L5.35008 1.24536C5.31108 1.28915 5.31495 1.35629 5.35872 1.39531L8.15339 3.88667C8.19716 3.92569 8.26425 3.92182 8.30325 3.87803L8.3059 3.87505C8.3449 3.83126 8.34103 3.76412 8.29726 3.7251Z" fill="white"/>
<path d="M24.7532 20.1519C24.395 20.0121 24.1137 20.0975 23.9093 20.4082C22.9682 18.0128 21.7577 15.7802 20.2778 13.7105C17.7356 10.1532 14.5512 7.20466 11.053 4.62251C10.574 4.26893 10.0643 3.90208 9.52381 3.52194C9.51717 3.51708 9.51629 3.5111 9.52115 3.50402C9.52558 3.49738 9.53133 3.49628 9.5384 3.5007C12.1474 5.2394 14.5945 7.16793 16.8798 9.28632C17.1894 9.57308 17.5054 9.8782 17.8278 10.2017C20.6991 13.0786 23.165 16.3776 24.7532 20.1519Z" fill="white"/>
<path d="M2.62124 25.3888C1.69909 24.9965 0.953409 24.2896 0.522188 23.41C0.00162688 22.3475 -0.12973 21.2485 0.128118 20.113C0.196229 19.8129 0.302376 19.4167 0.446558 18.9241C1.81408 14.2515 3.27426 9.2281 4.8271 3.85404C4.92529 3.51351 5.29945 3.50223 5.48189 3.77637C5.54248 3.86798 5.60485 3.96113 5.66898 4.05583C7.35936 6.56563 8.12561 9.50557 8.19062 12.5484C8.2207 13.9437 8.14153 15.2837 7.95312 16.5683C7.4958 19.6895 6.59135 22.7624 5.23975 25.7871C5.15483 25.9782 5.02812 26.0712 4.79791 26.0128C4.10398 25.8349 3.46886 25.6625 2.89258 25.4957C2.85233 25.4842 2.76188 25.4485 2.62124 25.3888Z" fill="white"/>
<path d="M17.0547 22.0785C16.788 22.133 16.6005 22.2834 16.4921 22.5299C16.3316 22.8946 16.4046 23.1769 16.7111 23.3769C16.9386 23.5263 17.0633 23.7752 17.0003 24.0387C16.924 24.3573 16.8802 24.6335 16.6129 24.7696C16.5775 24.7873 16.4711 24.8101 16.2938 24.8379C16.139 24.8623 15.9979 24.9256 15.8705 25.0278L15.9534 22.6799C15.9548 22.6428 15.9402 22.6348 15.9096 22.656C15.6098 22.8651 15.29 22.8997 15.085 22.5405C14.9032 22.2233 14.606 22.2857 14.3148 22.3646C14.1516 22.4085 14.0443 22.5078 13.993 22.6627C13.9532 22.7822 13.9638 22.9036 13.8909 23.0145C13.6826 23.3298 13.1087 23.3006 12.9435 22.9342C12.8911 22.818 12.9229 22.7098 12.8944 22.5917C12.8294 22.3202 12.6563 22.2717 12.4307 22.1907C12.1978 22.1071 11.9756 22.125 11.8217 22.3427C11.6797 22.5432 11.4648 22.6102 11.2266 22.5193C11.1952 22.5074 11.1399 22.4711 11.0607 22.4104C10.8504 22.2498 10.7821 21.9929 10.9261 21.7619C11.0601 21.5462 11.015 21.3232 10.8504 21.1459C10.6633 20.9441 10.5068 20.7476 10.191 20.8804C9.87034 21.0154 9.63527 20.9132 9.48578 20.5737C9.37367 20.3188 9.4546 20.0507 9.70073 19.9245C10.0351 19.7539 9.96212 19.3451 9.85464 19.0736C9.7883 18.9063 9.6481 18.8105 9.43404 18.7861C9.41856 18.7844 9.40949 18.7912 9.40684 18.8067C8.92918 21.677 8.06674 24.4715 6.93893 27.1499C6.91239 27.2123 6.86551 27.2457 6.79828 27.2502C6.62845 27.2612 6.45021 27.2754 6.26357 27.2926C6.13951 27.3046 6.01412 27.2044 6.08312 27.0729C8.08199 23.276 9.28145 18.9069 9.30069 14.5936C9.31617 11.1233 8.54749 7.88534 6.99465 4.87969C6.98299 4.8572 6.97836 4.83175 6.98138 4.80667C6.98979 4.731 7.01633 4.68498 7.061 4.6686C7.15476 4.63408 7.22685 4.65997 7.27727 4.74627C9.21909 8.0805 9.95814 12.0121 9.71997 15.9059C9.71245 16.0338 9.73854 16.0414 9.79825 15.9285C9.9243 15.6915 10.2096 15.5727 10.4504 15.7188C10.8179 15.9405 11.0568 15.7174 11.2923 15.4605C11.421 15.3192 11.4123 15.118 11.3394 14.9488C11.0939 14.3766 12.0127 13.9378 12.2907 14.4841C12.3869 14.672 12.574 14.7722 12.785 14.7403C13.1074 14.6919 13.392 14.6308 13.4305 14.2398C13.4597 13.9478 13.6972 13.8004 13.993 13.8203C14.2027 13.8345 14.3482 13.9177 14.4296 14.0699C14.5463 14.2896 14.4196 14.508 14.6399 14.7005C14.6965 14.7496 14.7653 14.7881 14.8462 14.816C15.0724 14.893 15.296 14.9727 15.4977 14.7841C15.5832 14.7045 15.6343 14.5983 15.7425 14.5425C15.8915 14.466 16.0388 14.4655 16.1843 14.5412C16.5448 14.7293 16.6328 14.9877 16.4483 15.3165C16.3721 15.4519 16.3634 15.6484 16.453 15.7758C16.6321 16.0307 16.8597 16.3215 17.2166 16.1569C17.8057 15.8867 18.2515 16.7994 17.7055 17.1094C17.3811 17.2933 17.4202 17.6033 17.5138 17.9066C17.5757 18.1066 17.7077 18.2199 17.9099 18.2465C18.1929 18.2832 18.3433 18.4337 18.361 18.6979C18.388 19.1063 18.2053 19.3141 17.813 19.3212C17.6087 19.3245 17.4607 19.4586 17.3924 19.6451C17.273 19.9697 17.2073 20.2133 17.5317 20.4476C17.9437 20.7443 17.5549 21.4672 17.0786 21.3743C17.0534 21.369 17.041 21.3794 17.0414 21.4055L17.0547 22.0785ZM9.98998 17.4287C10.1034 17.1439 10.197 16.8505 9.89776 16.6308C9.80798 16.5649 9.74872 16.489 9.71997 16.4031C9.70803 16.3673 9.70007 16.3682 9.69609 16.4058L9.56871 17.6876C9.56818 17.6934 9.56903 17.6993 9.57118 17.7048C9.57334 17.7103 9.57674 17.7152 9.58112 17.7191C9.5855 17.7231 9.59074 17.7259 9.59642 17.7275C9.60209 17.729 9.60805 17.7292 9.61382 17.7281C9.80046 17.69 9.92585 17.5902 9.98998 17.4287ZM15.2476 18.5219C15.2476 18.1103 15.0841 17.7156 14.7933 17.4246C14.5024 17.1335 14.1079 16.97 13.6965 16.97C13.2851 16.97 12.8906 17.1335 12.5997 17.4246C12.3088 17.7156 12.1454 18.1103 12.1454 18.5219C12.1454 18.9336 12.3088 19.3283 12.5997 19.6193C12.8906 19.9104 13.2851 20.0739 13.6965 20.0739C14.1079 20.0739 14.5024 19.9104 14.7933 19.6193C15.0841 19.3283 15.2476 18.9336 15.2476 18.5219Z" fill="white"/>
<path d="M12.1752 9.10065C11.5299 8.00804 10.7621 6.89619 9.8718 5.76509C9.85234 5.74075 9.83952 5.71531 9.83332 5.68875C9.82138 5.63963 9.84239 5.60357 9.89635 5.58056C9.91066 5.57456 9.92646 5.57313 9.94155 5.57646C9.95664 5.57979 9.97029 5.58772 9.9806 5.59914C12.0752 7.9056 13.6911 10.5057 14.8282 13.3994C14.8662 13.4954 14.835 13.556 14.7346 13.5812L14.5177 13.6357C14.4354 13.6565 14.3786 13.6275 14.3472 13.5487C13.7214 11.9751 12.9974 10.4924 12.1752 9.10065Z" fill="white"/>
<path d="M23.9091 20.4093C24.1134 20.0986 24.3947 20.0132 24.753 20.1531C25.1683 20.3743 25.2954 20.6837 25.1344 21.081C25.0734 21.1616 25.0484 21.2472 25.0595 21.3379C25.0037 21.6187 25.2081 21.8185 25.4064 22.0084C25.626 22.2175 25.8755 22.3064 26.1508 22.165C26.4759 21.9986 26.7446 22.0418 26.9569 22.2945C27.2521 22.6456 27.2846 23.0903 26.8673 23.3625C26.5953 23.5397 26.5303 23.8205 26.6225 24.1166C26.6928 24.3429 26.7087 24.5387 26.9204 24.6914C27.011 24.7565 27.1057 24.7919 27.2043 24.7976C27.7072 24.8268 27.931 25.11 27.8757 25.6473C27.8458 25.9307 27.6236 26.181 27.3217 26.1949C27.2328 26.1996 27.1446 26.2015 27.061 26.2367C26.7147 26.3848 26.7273 26.6237 26.6231 26.9291C26.5455 27.1548 26.6066 27.4057 26.7757 27.5676C26.866 27.6539 26.9834 27.7011 27.061 27.8033C27.2021 27.9891 27.2348 28.1854 27.1592 28.3921C26.9907 28.8501 26.6271 29.089 26.1554 28.8408C25.9465 28.7313 25.6625 28.7844 25.504 28.9417C25.291 29.1534 25.0628 29.3194 25.0694 29.6539C25.0727 29.8418 25.2008 29.9699 25.2227 30.1498C25.2631 30.4817 25.1019 30.6728 24.8399 30.8262C24.5082 31.02 24.1586 30.9576 23.9489 30.6204C23.8209 30.414 23.586 30.2965 23.3505 30.341C23.0108 30.406 22.5743 30.5029 22.5239 30.9131C22.5146 30.9879 22.504 31.0618 22.4921 31.1348C22.4443 31.4318 22.2636 31.598 21.95 31.6334C21.4335 31.6922 21.1573 31.4703 21.1214 30.9676C21.1055 30.7372 20.9443 30.5321 20.7287 30.4657C20.3459 30.3476 19.9346 30.2115 19.6831 30.6443C19.4549 31.0373 19.041 31.0061 18.7119 30.793C18.4054 30.5945 18.3172 30.256 18.4943 29.9281C18.6144 29.7057 18.5679 29.4196 18.4061 29.251C18.3273 29.1691 18.2457 29.0846 18.1613 28.9974C17.9868 28.8182 17.7075 28.7472 17.4773 28.862C17.2152 28.9928 16.9412 29.0339 16.715 28.8189C16.4583 28.5746 16.311 28.1816 16.5458 27.8497C16.6308 27.7303 16.7608 27.6818 16.859 27.5802C17.1237 27.3054 17.0195 26.9171 16.863 26.5686C16.7475 26.2812 16.4815 26.2374 16.1737 26.2142C16.0839 26.2071 15.9702 26.1327 15.8327 25.9911C15.6699 25.6588 15.6823 25.338 15.8698 25.0286C15.9972 24.9264 16.1383 24.8631 16.2931 24.8388C16.4704 24.8109 16.5768 24.7881 16.6122 24.7704C16.8795 24.6343 16.9233 24.3582 16.9996 24.0396C17.0627 23.776 16.9379 23.5271 16.7104 23.3778C16.4039 23.1777 16.3309 22.8954 16.4914 22.5308C16.5998 22.2843 16.7873 22.1338 17.054 22.0794C17.1553 22.0896 17.2535 22.1137 17.3486 22.1517C17.5007 22.2128 17.5949 22.2456 17.6312 22.25C17.9689 22.2885 18.1122 22.0814 18.3238 21.8783C18.5461 21.6645 18.6005 21.3871 18.4591 21.1076C18.2442 20.6795 18.4585 20.3575 18.8446 20.1723C19.1537 20.0243 19.4755 20.1232 19.6573 20.4153C19.7656 20.5905 19.9193 20.687 20.1183 20.7047C20.2975 20.7206 20.4607 20.6423 20.6332 20.6011C20.8541 20.5487 21.0232 20.3821 21.077 20.161C21.1088 20.0283 21.0869 19.9035 21.146 19.7734C21.2455 19.5508 21.4136 19.4275 21.6502 19.4036C22.1743 19.351 22.4525 19.5703 22.4848 20.0615C22.5146 20.5148 22.9074 20.5918 23.2583 20.6821C23.5409 20.7551 23.7579 20.6642 23.9091 20.4093ZM23.8202 25.5192C23.8202 24.9838 23.6077 24.4704 23.2293 24.0918C22.851 23.7132 22.3378 23.5006 21.8028 23.5006C21.2677 23.5006 20.7546 23.7132 20.3762 24.0918C19.9979 24.4704 19.7853 24.9838 19.7853 25.5192C19.7853 25.7843 19.8375 26.0467 19.9389 26.2916C20.0403 26.5366 20.1889 26.7591 20.3762 26.9465C20.5635 27.134 20.7859 27.2827 21.0307 27.3841C21.2755 27.4855 21.5378 27.5378 21.8028 27.5378C22.0677 27.5378 22.33 27.4855 22.5748 27.3841C22.8196 27.2827 23.042 27.134 23.2293 26.9465C23.4167 26.7591 23.5653 26.5366 23.6666 26.2916C23.768 26.0467 23.8202 25.7843 23.8202 25.5192Z" fill="white"/>
<path d="M25.1351 21.0806C25.2054 21.1912 25.1805 21.2768 25.0602 21.3375C25.0491 21.2467 25.0741 21.1611 25.1351 21.0806Z" fill="white"/>
<path d="M15.8314 25.9902C15.969 26.1318 16.0826 26.2062 16.1724 26.2133C16.4802 26.2365 16.7463 26.2803 16.8617 26.5677L16.8637 27.0928C16.8639 27.1042 16.8609 27.1155 16.8552 27.1253C16.8495 27.1352 16.8412 27.1432 16.8312 27.1486C16.5174 27.3178 16.1333 27.284 15.7757 27.2395C15.7527 27.2364 15.7421 27.2236 15.7438 27.201L15.8314 25.9902Z" fill="white"/>
</svg>
