<svg width="104" height="133" viewBox="0 0 104 133" fill="none" xmlns="http://www.w3.org/2000/svg">
<g filter="url(#filter0_i_12413_4088)">
<path fill-rule="evenodd" clip-rule="evenodd" d="M103.759 15.1327C103.759 7.21283 97.339 0.79248 89.4191 0.79248H14.581C6.66107 0.79248 0.240723 7.21283 0.240723 15.1327V197.971C0.240723 205.891 6.66107 212.311 14.581 212.311H89.4191C97.339 212.311 103.759 205.891 103.759 197.971V15.1327ZM31.61 13.5643C28.6401 13.5643 26.2324 11.1566 26.2324 8.18667V7.06634C26.2324 6.57135 25.8312 6.17007 25.3362 6.17007H14.581C9.63103 6.17007 5.61832 10.1828 5.61832 15.1327V197.971C5.61832 202.921 9.63103 206.934 14.581 206.934H89.4191C94.3691 206.934 98.3818 202.921 98.3818 197.971V15.1327C98.3818 10.1828 94.3691 6.17007 89.4191 6.17007H78.664C78.169 6.17007 77.7677 6.57135 77.7677 7.06634V8.18667C77.7677 11.1566 75.3601 13.5643 72.3901 13.5643H31.61Z" fill="#1F1F1F"/>
</g>
<path d="M89.4191 0.848497C97.3081 0.848497 103.703 7.24377 103.703 15.1327V197.971C103.703 205.86 97.3081 212.255 89.4191 212.255H14.581C6.69201 212.255 0.296739 205.86 0.296739 197.971V15.1327C0.296739 7.24377 6.69201 0.848497 14.581 0.848497H89.4191ZM31.61 13.5082C28.671 13.5082 26.2884 11.1257 26.2884 8.18667V7.06634C26.2884 6.54041 25.8621 6.11406 25.3362 6.11406H14.581C9.6001 6.11406 5.5623 10.1519 5.5623 15.1327V197.971C5.5623 202.952 9.6001 206.99 14.581 206.99H89.4191C94.4 206.99 98.4378 202.952 98.4378 197.971V15.1327C98.4378 10.1519 94.4 6.11406 89.4191 6.11406H78.664C78.138 6.11406 77.7117 6.54041 77.7117 7.06634V8.18667C77.7117 11.1257 75.3291 13.5082 72.3901 13.5082H31.61Z" stroke="#3F3F3F" stroke-width="0.112033"/>
<defs>
<filter id="filter0_i_12413_4088" x="0.240723" y="0.79248" width="103.519" height="212.191" filterUnits="userSpaceOnUse" color-interpolation-filters="sRGB">
<feFlood flood-opacity="0" result="BackgroundImageFix"/>
<feBlend mode="normal" in="SourceGraphic" in2="BackgroundImageFix" result="shape"/>
<feColorMatrix in="SourceAlpha" type="matrix" values="0 0 0 0 0 0 0 0 0 0 0 0 0 0 0 0 0 0 127 0" result="hardAlpha"/>
<feOffset dy="0.672199"/>
<feGaussianBlur stdDeviation="0.896266"/>
<feComposite in2="hardAlpha" operator="arithmetic" k2="-1" k3="1"/>
<feColorMatrix type="matrix" values="0 0 0 0 0 0 0 0 0 0 0 0 0 0 0 0 0 0 0.04 0"/>
<feBlend mode="normal" in2="shape" result="effect1_innerShadow_12413_4088"/>
</filter>
</defs>
</svg>
